# This file uses centimeters as units for non-parametric coordinates.

mtllib wall_2.mtl
g default
v -0.159792 -0.059365 8.590017
v 0.347368 -0.059365 8.590017
v -0.159792 10.642444 8.590017
v 0.347368 10.642444 8.590017
v -0.159792 10.642444 -7.590871
v 0.347368 10.642444 -7.590871
v -0.159792 -0.059365 -7.590871
v 0.347368 -0.059365 -7.590871
v -0.159792 0.494800 8.590017
v 0.347368 0.494800 8.590017
v 0.347368 0.494796 -7.590871
v -0.159792 0.494796 -7.590871
v -0.159792 10.228692 -7.590871
v 0.347368 10.228692 -7.590871
v 0.347368 10.228695 8.590017
v -0.159792 10.228695 8.590017
v -0.359293 -0.027965 -7.590871
v -0.359293 -0.027965 8.590017
v -0.359293 0.463400 8.590017
v -0.359293 0.463397 -7.590871
v -0.359293 10.252138 8.590017
v -0.359293 10.252135 -7.590871
v -0.359293 10.619001 8.590017
v -0.359293 10.619001 -7.590871
vt 0.307152 0.033367
vt 0.327729 0.033449
vt 0.326147 0.428395
vt 0.305570 0.428312
vt 0.028214 0.021912
vt 0.049802 0.021577
vt 0.060504 0.710352
vt 0.038915 0.710688
vt 0.107732 0.086515
vt 0.140116 0.086743
vt 0.135747 0.708279
vt 0.103363 0.708052
vt 0.984257 0.036079
vt 0.982675 0.431024
vt 0.215170 0.489888
vt 0.984187 0.492565
vt 0.982576 0.955181
vt 0.213559 0.952503
vt 0.307242 0.010882
vt 0.327820 0.010964
vt 0.984347 0.013594
vt 0.135498 0.743664
vt 0.103115 0.743437
vt 0.215285 0.456937
vt 0.984302 0.459614
vt 0.984220 0.482967
vt 0.215204 0.480289
vt 0.107918 0.060096
vt 0.140301 0.060324
vt 0.982608 0.447812
vt 0.326080 0.445182
vt 0.305503 0.445100
vt 0.213526 0.962050
vt 0.982543 0.964728
vt 0.982482 0.982163
vt 0.213465 0.979485
vt 0.299062 0.032060
vt 0.299142 0.012124
vt 0.090390 0.741342
vt 0.090611 0.709967
vt 0.297412 0.444116
vt 0.297471 0.429231
vt 0.982449 0.991710
vt 0.213432 0.989032
vt 0.095004 0.084929
vt 0.095168 0.061503
vn 0.000000 0.000000 1.000000
vn 0.000000 0.000000 1.000000
vn 0.000000 0.000000 1.000000
vn 0.000000 0.000000 1.000000
vn -0.033156 0.999450 0.000000
vn 0.000000 1.000000 0.000000
vn 0.000000 1.000000 0.000000
vn -0.033156 0.999450 0.000000
vn 0.000000 0.000000 -1.000000
vn 0.000000 0.000000 -1.000000
vn 0.000000 0.000000 -1.000000
vn 0.000000 0.000000 -1.000000
vn 1.000000 0.000000 0.000000
vn 1.000000 0.000000 0.000000
vn 1.000000 0.000000 0.000000
vn 1.000000 0.000000 0.000000
vn -1.000000 0.000000 0.000000
vn -1.000000 0.000000 0.000000
vn -1.000000 0.000000 0.000000
vn -1.000000 0.000000 0.000000
vn 0.000000 0.000000 1.000000
vn 0.000000 0.000000 1.000000
vn 0.000000 0.000000 1.000000
vn 0.000000 0.000000 1.000000
vn 1.000000 0.000000 0.000000
vn 1.000000 0.000000 0.000000
vn 1.000000 0.000000 0.000000
vn 1.000000 0.000000 0.000000
vn 0.000000 0.000000 -1.000000
vn 0.000000 0.000000 -1.000000
vn 0.000000 0.000000 -1.000000
vn 0.000000 0.000000 -1.000000
vn -1.000000 0.000000 0.000000
vn -1.000000 0.000000 0.000000
vn -1.000000 0.000000 0.000000
vn -1.000000 0.000000 0.000000
vn 0.000000 0.000000 -1.000000
vn 0.000000 0.000000 -1.000000
vn 0.000000 0.000000 -1.000000
vn 0.000000 0.000000 -1.000000
vn 1.000000 0.000000 0.000000
vn 1.000000 0.000000 0.000000
vn 1.000000 0.000000 0.000000
vn 1.000000 0.000000 0.000000
vn 0.000000 0.000000 1.000000
vn 0.000000 0.000000 1.000000
vn 0.000000 0.000000 1.000000
vn 0.000000 0.000000 1.000000
vn -1.000000 0.000000 0.000000
vn -1.000000 0.000000 0.000000
vn -1.000000 0.000000 0.000000
vn -1.000000 0.000000 0.000000
vn 0.000000 0.000000 1.000000
vn 0.000000 0.000000 1.000000
vn 0.000000 0.000000 1.000000
vn 0.000000 0.000000 1.000000
vn -0.155476 0.987840 -0.000000
vn -0.155476 0.987840 -0.000000
vn -0.155476 0.987840 -0.000000
vn -0.155476 0.987840 -0.000000
vn 0.000000 0.000000 -1.000000
vn 0.000000 0.000000 -1.000000
vn 0.000000 0.000000 -1.000000
vn 0.000000 0.000000 -1.000000
vn -0.116707 -0.993166 0.000000
vn -0.116707 -0.993166 0.000000
vn -0.116707 -0.993166 0.000000
vn -0.116707 -0.993166 0.000000
vn 0.000000 0.000000 1.000000
vn 0.000000 0.000000 1.000000
vn 0.000000 0.000000 1.000000
vn 0.000000 0.000000 1.000000
vn -0.033156 0.999450 0.000000
vn -0.033156 0.999450 0.000000
vn -0.116707 0.993166 0.000000
vn -0.116707 0.993166 0.000000
vn 0.000000 0.000000 -1.000000
vn 0.000000 0.000000 -1.000000
vn 0.000000 0.000000 -1.000000
vn 0.000000 0.000000 -1.000000
s off
g pCube17
usemtl wall:initialShadingGroup
f 9/1/1 10/2/2 15/3/3 16/4/4
f 3/5/5 4/6/6 6/7/7 5/8/8
f 13/9/9 14/10/10 11/11/11 12/12/12
f 10/2/13 11/13/14 14/14/15 15/3/16
f 12/15/17 9/16/18 16/17/19 13/18/20
f 1/19/21 2/20/22 10/2/23 9/1/24
f 2/20/25 8/21/26 11/13/27 10/2/28
f 12/12/29 11/11/30 8/22/31 7/23/32
f 17/24/33 18/25/34 19/26/35 20/27/36
f 5/28/37 6/29/38 14/10/39 13/9/40
f 15/3/41 14/14/42 6/30/43 4/31/44
f 16/4/45 15/3/46 4/31/47 3/32/48
f 22/33/49 21/34/50 23/35/51 24/36/52
f 1/19/53 9/1/54 19/37/55 18/38/56
f 9/16/57 12/15/58 20/27/59 19/26/60
f 12/12/61 7/23/62 17/39/63 20/40/64
f 13/18/65 16/17/66 21/34/67 22/33/68
f 16/4/69 3/32/70 23/41/71 21/42/72
f 3/43/73 5/44/74 24/36/75 23/35/76
f 5/28/77 13/9/78 22/45/79 24/46/80
